<?xml version="1.0" standalone="no"?>
<!DOCTYPE svg PUBLIC "-//W3C//DTD SVG 20010904//EN"
 "http://www.w3.org/TR/2001/REC-SVG-20010904/DTD/svg10.dtd">
<svg version="1.0" xmlns="http://www.w3.org/2000/svg"
 width="500.000000pt" height="500.000000pt" viewBox="0 0 500.000000 500.000000"
 preserveAspectRatio="xMidYMid meet">
<metadata>
Created by potrace 1.14, written by Peter Selinger 2001-2017
</metadata>
<g transform="translate(0.000000,500.000000) scale(0.100000,-0.100000)"
fill="#000000" stroke="none">
<path d="M1770 3583 c-25 -2 -55 -6 -67 -8 l-23 -5 0 -690 0 -690 130 0 130 0
2 188 3 187 105 6 c58 4 123 12 145 19 67 21 154 69 201 112 l44 41 0 -672 0
-671 130 0 130 0 2 188 3 187 105 6 c117 8 158 18 244 61 174 88 270 274 252
488 -17 205 -96 333 -251 406 -109 52 -214 68 -412 61 -90 -3 -163 -4 -163 -3
0 2 11 28 24 57 65 142 57 349 -18 497 -58 115 -186 199 -343 227 -71 13 -257
17 -373 8z m387 -271 c50 -26 96 -80 112 -131 15 -51 13 -177 -3 -224 -36
-100 -129 -160 -250 -161 l-71 -1 -3 274 -2 274 88 -5 c61 -4 100 -11 129 -26z
m760 -790 c50 -26 96 -80 112 -131 15 -51 13 -177 -3 -224 -36 -100 -129 -160
-250 -161 l-71 -1 -3 274 -2 274 88 -5 c61 -4 100 -11 129 -26z"/>
</g>
</svg>
