<?xml version="1.0" standalone="no"?>
<!DOCTYPE svg PUBLIC "-//W3C//DTD SVG 20010904//EN"
 "http://www.w3.org/TR/2001/REC-SVG-20010904/DTD/svg10.dtd">
<svg version="1.0" xmlns="http://www.w3.org/2000/svg"
 width="500.000000pt" height="500.000000pt" viewBox="0 0 500.000000 500.000000"
 preserveAspectRatio="xMidYMid meet">
<metadata>
Created by potrace 1.14, written by Peter Selinger 2001-2017
</metadata>
<g transform="translate(0.000000,500.000000) scale(0.100000,-0.100000)"
fill="#000000" stroke="none">
<path d="M2360 4024 c-335 -20 -665 -156 -925 -382 -269 -233 -448 -568 -504
-939 -14 -92 -14 -324 0 -416 72 -481 348 -888 764 -1126 225 -129 477 -194
755 -194 278 0 539 68 763 199 482 283 767 777 767 1329 0 417 -158 794 -455
1089 -303 301 -737 464 -1165 440z"/>
</g>
</svg>
